<?xml version="1.0"?>

<!DOCTYPE svg PUBLIC '-//W3C//DTD SVG 1.0//EN' 'http://www.w3.org/TR/2001/REC-SVG-20010904/DTD/svg10.dtd'>
<svg fill-opacity="1" xmlns:xlink="http://www.w3.org/1999/xlink" color-rendering="auto" color-interpolation="auto" text-rendering="auto" stroke="black" stroke-linecap="square" stroke-miterlimit="10" shape-rendering="auto" stroke-opacity="1" fill="black" stroke-dasharray="none" font-weight="normal" stroke-width="1" xmlns="http://www.w3.org/2000/svg" font-family="&apos;Dialog&apos;" font-style="normal" stroke-linejoin="miter" font-size="12" stroke-dashoffset="0" image-rendering="auto">
  <!--Unicode Character 'SHOPPING TROLLEY' (U+1F6D2)-->
  <defs id="genericDefs" />
  <g>
    <g>
      <path d="M266.3438 170.5781 L219.7969 170.5781 L196.5938 296.1562 Q196.7344 296.8594 203.9062 317.25 Q209.3906 332.8594 209.3906 336.7969 Q209.3906 340.5938 206.8594 343.7656 Q204.3281 346.9219 200.5312 346.9219 L40.2188 346.9219 L40.2188 331.5938 L192.6562 331.5938 Q192.7969 331.3125 192.7969 330.8906 Q192.7969 328.9219 182.5312 304.1719 Q180.5625 303.8906 172.6875 303.4688 Q151.4531 302.4844 27 294.75 L9 192.6562 L199.9688 192.6562 L206.5781 155.25 L266.3438 155.25 L266.3438 170.5781 ZM207.4219 387.8438 Q207.4219 397.8281 200.4531 404.8594 Q193.5 411.8906 183.5156 411.8906 Q173.5312 411.8906 166.7031 405 Q159.8906 398.1094 159.8906 388.125 Q159.8906 378 166.7031 371.1719 Q173.5312 364.3594 183.6562 364.3594 Q193.7812 364.3594 200.5938 371.0312 Q207.4219 377.7188 207.4219 387.8438 ZM83.8125 388.125 Q83.8125 398.1094 77.0625 405 Q70.3125 411.8906 60.3281 411.8906 Q50.3438 411.8906 43.375 404.8594 Q36.4219 397.8281 36.4219 387.8438 Q36.4219 377.8594 43.2344 371.1094 Q50.0625 364.3594 60.1875 364.3594 Q70.4531 364.3594 77.125 371.1094 Q83.8125 377.8594 83.8125 388.125 ZM196.4531 208.125 L28.125 208.125 L40.2188 280.6875 L181.9688 288.7031 L196.4531 208.125 Z" stroke="none" />
    </g>
  </g>
</svg>
